<svg width="16" height="16" viewBox="0 0 16 16" fill="none" xmlns="http://www.w3.org/2000/svg">
<g clip-path="url(#clip0_244_1073)">
<path d="M8 16C12.4183 16 16 12.4183 16 8C16 3.58172 12.4183 0 8 0C3.58172 0 0 3.58172 0 8C0 12.4183 3.58172 16 8 16Z" fill="#E50000"/>
<path d="M8 13C8.55228 13 9 12.5523 9 12C9 11.4477 8.55228 11 8 11C7.44772 11 7 11.4477 7 12C7 12.5523 7.44772 13 8 13Z" fill="white"/>
<path d="M6.34912 3.19822C6.34912 3.19822 6.41012 2.42522 7.91812 2.41322C9.42612 2.40122 9.64912 3.19822 9.64912 3.19822L8.82612 9.75222H7.17512L6.34912 3.19822Z" fill="white"/>
</g>
<defs>
<clipPath id="clip0_244_1073">
<rect width="16" height="16" fill="white"/>
</clipPath>
</defs>
</svg>
